# xmcd
#
# Track frame offsets: 
#        183
#        19833
#        37833
#        63558
#        87408
#        96715
#        116883
#        137958
#        154710
#
# Disc length: 2141 seconds
#
# Revision: 3
# Processed by: cddbd v1.5.2PL0 Copyright (c) Steve Scherf et al.
# Submitted via: ExactAudioCopyFreeDBPlugin 1.0
#
DISCID=7d085b09
DTITLE=Keef Hartley Band - Seventy Second Brave
DYEAR=1972
DGENRE=Bluesrock
TTITLE0=Heartbreakin´ Woman
TTITLE1=Marin County
TTITLE2=Hard Pill To Swallow
TTITLE3=Don´t You Be Long
TTITLE4=Nicturns
TTITLE5=Don´t Sign It
TTITLE6=Always Thinking Of You
TTITLE7=You Say You´re Together Now
TTITLE8=What It Is
EXTD=
EXTT0=
EXTT1=
EXTT2=
EXTT3=
EXTT4=
EXTT5=
EXTT6=
EXTT7=
EXTT8=
PLAYORDER=
